<?xml version="1.0" standalone="no"?>
<!DOCTYPE svg PUBLIC "-//W3C//DTD SVG 20010904//EN"
 "http://www.w3.org/TR/2001/REC-SVG-20010904/DTD/svg10.dtd">
<svg version="1.0" xmlns="http://www.w3.org/2000/svg"
 width="612.000000pt" height="527.000000pt" viewBox="0 0 612.000000 527.000000"
 preserveAspectRatio="xMidYMid meet">

<g transform="translate(0.000000,527.000000) scale(0.100000,-0.100000)"
fill="#000000" stroke="none">
<path d="M4242 4649 c-115 -19 -217 -97 -273 -206 -32 -62 -34 -74 -34 -162 0
-87 3 -102 31 -161 40 -84 100 -144 182 -183 61 -29 76 -32 162 -32 82 0 103
4 152 27 156 73 251 249 219 406 -42 213 -231 346 -439 311z"/>
<path d="M2913 3762 c-28 -10 -68 -31 -89 -47 -31 -24 -392 -497 -504 -660
-46 -67 -53 -143 -18 -195 33 -50 82 -72 141 -66 86 9 102 26 340 346 34 47
98 131 141 188 l78 102 176 -2 c159 -3 177 -5 180 -21 2 -9 -70 -140 -159
-289 -89 -150 -173 -302 -186 -338 -39 -112 -26 -251 35 -363 56 -104 104
-138 470 -341 188 -104 342 -192 342 -195 -1 -3 -58 -32 -128 -63 -521 -234
-518 -233 -548 -290 -50 -95 32 -228 140 -228 37 0 247 62 807 241 174 55 223
84 269 155 56 88 62 184 20 283 -30 69 -67 100 -320 271 -334 225 -332 224
-337 236 -4 10 23 58 254 449 91 155 135 221 149 223 15 2 48 -42 151 -197
115 -173 139 -204 180 -228 l48 -28 339 -3 c218 -2 356 1 389 8 96 20 157 93
157 188 0 61 -29 107 -85 136 -37 20 -59 21 -321 24 l-282 3 -148 237 c-255
409 -252 405 -350 453 l-49 24 -615 2 c-571 3 -619 1 -667 -15z"/>
<path d="M1412 2482 c-35 -33 -47 -69 -38 -109 4 -14 21 -39 38 -55 l30 -28
502 0 c476 0 503 1 532 19 66 41 66 140 0 181 -32 19 -47 20 -534 20 l-500 0
-30 -28z"/>
<path d="M2595 1993 c-153 -241 -379 -597 -503 -791 -123 -195 -229 -368 -234
-387 -33 -106 76 -220 186 -195 19 4 44 14 56 23 12 8 89 102 172 208 901
1154 948 1216 948 1232 0 8 -30 32 -66 53 -81 47 -178 149 -222 232 -18 34
-39 62 -46 62 -8 0 -139 -197 -291 -437z"/>
<path d="M1094 2090 c-36 -14 -64 -59 -64 -102 0 -32 7 -47 34 -74 l34 -34
502 0 c450 0 505 2 530 17 58 34 68 113 21 165 l-29 33 -504 2 c-277 1 -513
-2 -524 -7z"/>
<path d="M745 1638 c-62 -34 -75 -116 -26 -170 l29 -33 501 -3 c556 -3 546 -4
578 62 22 46 11 98 -28 130 l-31 26 -501 0 c-346 -1 -508 -4 -522 -12z"/>
</g>
</svg>
